<?xml version="1.0" encoding="UTF-8"?>
<svg width="140px" height="32px" viewBox="0 0 140 32" version="1.1" xmlns="http://www.w3.org/2000/svg" xmlns:xlink="http://www.w3.org/1999/xlink">
    <!-- Generator: Sketch 50.2 (55047) - http://www.bohemiancoding.com/sketch -->
    <title>Logotype / Black</title>
    <desc>Created with Sketch.</desc>
    <defs>
        <polygon id="path-1" points="0.01640625 0.0192 139.964727 0.0192 139.964727 31.9833043 0.01640625 31.9833043"></polygon>
    </defs>
    <g id="Symbols" stroke="none" stroke-width="1" fill="none" fill-rule="evenodd">
        <g id="Top-/-Parent" transform="translate(-81.000000, -17.000000)">
            <g id="Icons-/-Logo_Black" transform="translate(81.000000, 17.000000)">
                <g id="Group-+-Rectangle-5-+-BETA">
                    <g id="Group">
                        <mask id="mask-2" fill="white">
                            <use xlink:href="#path-1"></use>
                        </mask>
                        <g id="Clip-2"></g>
                        <path d="M2.28511719,2.34462609 L2.28511719,29.6742957 L137.68043,29.6742957 L137.68043,2.34462609 L2.28511719,2.34462609 L2.28511719,2.34462609 Z M0,0.0192 L139.964727,0.0192 L139.964727,32 L0,32 L0,0.0192 Z" id="Fill-1" fill="#000000" mask="url(#mask-2)"></path>
                        <path d="M83.5622266,9.36904348 C82.0129297,9.57161739 80.5248828,10.3529739 79.5364063,11.5959652 C78.7478125,12.570713 78.2799609,13.7917217 78.1361328,15.0405565 C77.9737109,16.4296348 78.1574609,17.8752 78.7636719,19.1373913 C79.2468359,20.1510957 80.0069922,21.0278957 80.9424219,21.630887 C82.0030859,22.322087 83.269375,22.6521043 84.5228125,22.6585043 C85.7869141,22.6735304 87.0676953,22.3618783 88.1464063,21.6795826 C89.0916797,21.0888348 89.8635938,20.2189913 90.3563281,19.2083478 C90.9682813,17.9673043 91.1659766,16.5414957 91.0281641,15.1674435 C90.9105859,13.9801043 90.5102734,12.8128 89.8149219,11.8480696 C89.2046094,10.9954783 88.3684375,10.3145739 87.4226172,9.88827826 C86.2192188,9.34205217 84.861875,9.19485217 83.5622266,9.36904348 L83.5622266,9.36904348 Z M84.0571484,6.96932174 C86.3097266,6.82824348 88.6066016,7.57704348 90.3396484,9.05182609 C91.9190234,10.3777391 93.0264453,12.2746435 93.3898438,14.3273739 C93.8177734,16.6294261 93.3179297,19.0950957 92.0136328,21.0278957 C90.8485156,22.7817739 89.0596875,24.0943304 87.0542969,24.6622609 C84.7628906,25.3275826 82.2147266,25.0270609 80.1434375,23.8258087 C78.3677344,22.8059826 76.9491406,21.1506087 76.2231641,19.2089043 C75.3629297,16.9580522 75.4498828,14.3554783 76.4605078,12.1697391 C77.2611328,10.4208696 78.6337891,8.95387826 80.3042188,8.04313043 C81.4589453,7.4125913 82.7492969,7.04417391 84.0571484,6.96932174 L84.0571484,6.96932174 Z" id="Fill-4" fill="#000000" mask="url(#mask-2)"></path>
                        <path d="M62.1241797,7.08674783 C63.8966016,6.79067826 65.8360938,7.24257391 67.1753906,8.4978087 C68.0987891,9.34789565 68.6552344,10.5958957 68.6464844,11.866713 C67.7939063,11.8678261 66.9410547,11.8650435 66.0884766,11.8678261 C66.0805469,11.2729043 65.8429297,10.6921739 65.4431641,10.2600348 C64.8377734,9.59081739 63.9228516,9.26135652 63.0391016,9.30114783 C62.2948047,9.32368696 61.5228906,9.5744 61.0028125,10.1384348 C60.1748438,11.0124522 60.1830469,12.5693217 61.0506641,13.4127304 C61.6869531,14.0496696 62.5701563,14.3287652 63.4172656,14.5349565 C64.3223438,14.7734261 65.2599609,14.9075478 66.1242969,15.2848696 C67.0140625,15.6602435 67.8360156,16.2596174 68.3673047,17.0882783 C68.8903906,17.8874435 69.1083203,18.8591304 69.1094141,19.8102261 C69.1200781,20.9238261 68.7285156,22.0296348 68.0427344,22.8944696 C67.5048828,23.5801043 66.78875,24.1121391 65.9976953,24.4541217 C64.0530078,25.2836174 61.7071875,25.0980174 59.9457031,23.9023304 C58.59875,23.0113391 57.5164844,21.5232 57.4833984,19.8416696 C58.2979688,19.5350261 59.1076172,19.2147478 59.9227344,18.9072696 C59.9101563,19.7785043 60.1701953,20.6689391 60.7348438,21.3348174 C61.4148828,22.1562435 62.4766406,22.6237217 63.5296484,22.5883826 C64.3800391,22.5714087 65.2703516,22.3290435 65.9028125,21.7213217 C66.7720703,20.8962783 66.9426953,19.3755826 66.2016797,18.4114087 C65.7070312,17.7881043 64.9359375,17.4856348 64.19,17.3100522 C63.2761719,17.1130435 62.3667188,16.8806957 61.4908984,16.5478957 C60.4381641,16.1327304 59.4442188,15.474087 58.7896094,14.5213217 C58.1248828,13.5652174 57.8711328,12.357287 57.9679297,11.2008348 C58.0529687,10.2233043 58.4915625,9.28556522 59.1699609,8.58991304 C59.9547266,7.7696 61.0227734,7.27095652 62.1241797,7.08674783" id="Fill-5" fill="#000000" mask="url(#mask-2)"></path>
                        <path d="M8.894375,7.42121739 C9.70976562,7.42177391 10.5257031,7.42121739 11.3410937,7.42177391 C11.3441016,9.75721739 11.3342578,12.0918261 11.3465625,14.4278261 C13.4419141,12.0996174 15.5244141,9.75944348 17.6110156,7.42177391 C18.5808984,7.42177391 19.5510547,7.4189913 20.5209375,7.424 C18.0881641,10.2330435 15.6376172,13.0267826 13.2042969,15.8358261 C15.7221094,18.7358609 18.2418359,21.6342261 20.7539062,24.5392696 C19.7413672,24.5462261 18.7288281,24.5412174 17.7171094,24.5426087 C17.6255078,24.5576348 17.5768359,24.4610783 17.5207812,24.4087652 C15.4628906,22.0324174 13.4099219,19.6524522 11.3454687,17.2825043 C11.3353516,19.7019826 11.3432812,22.1217391 11.3416406,24.5412174 C10.52625,24.5448348 9.70976562,24.5412174 8.894375,24.5434435 L8.894375,7.42121739" id="Fill-6" fill="#000000" mask="url(#mask-2)"></path>
                        <path d="M27.4739063,7.43262609 C28.3177344,7.43318261 29.1618359,7.43318261 30.0064844,7.43262609 C30.0056641,13.1294609 30.0056641,18.8257391 30.0064844,24.523687 C29.1618359,24.5228522 28.3177344,24.5228522 27.4739063,24.523687 C27.4744531,18.8257391 27.4744531,13.1294609 27.4739063,7.43262609" id="Fill-7" fill="#000000" mask="url(#mask-2)"></path>
                        <path d="M41.0992969,9.76556522 C41.1006641,13.9072 41.1006641,18.0488348 41.0992969,22.1904696 C42.1033594,22.1746087 43.1169922,22.2511304 44.1095703,22.0571826 C45.2451562,21.8518261 46.3490234,21.3403826 47.1627734,20.4947478 C48.0000391,19.6382609 48.4894922,18.4801391 48.6680469,17.2966957 C48.8315625,16.1958957 48.8003906,15.0583652 48.5302344,13.9773217 C48.2565234,12.8809739 47.6732812,11.8511304 46.8103125,11.128487 C45.8562891,10.3159652 44.6247266,9.90886957 43.3978125,9.80257391 C42.6335547,9.73885217 41.8654687,9.77558261 41.0992969,9.76556522 L41.0992969,9.76556522 Z M38.6528516,7.42121739 C39.4958594,7.42177391 40.3380469,7.42121739 41.1805078,7.42121739 C42.1689844,7.42678261 43.1664844,7.38142609 44.1453906,7.55561739 C46.2601562,7.89008696 48.2814062,9.00925217 49.5725781,10.7664696 C51.1016406,12.8114087 51.5323047,15.5681391 50.9889844,18.048 C50.6015234,19.8344348 49.6133203,21.4842435 48.2007422,22.6203826 C47.1190234,23.5013565 45.8139062,24.0806957 44.4573828,24.3500522 C43.1962891,24.6185739 41.9032031,24.5264696 40.6251562,24.5426087 C39.9675391,24.5434435 39.3107422,24.5420522 38.6528516,24.5434435 L38.6528516,7.42121739 L38.6528516,7.42121739 Z" id="Fill-8" fill="#000000" mask="url(#mask-2)"></path>
                        <path d="M100.833359,7.42121739 C101.648203,7.42177391 102.464141,7.42177391 103.279805,7.42121739 C103.280625,11.2164174 103.279805,15.0102261 103.280625,18.8051478 C103.275703,19.4365217 103.250547,20.0865391 103.47832,20.6850783 C103.772539,21.5513043 104.499336,22.2341565 105.360938,22.4898783 C106.363359,22.7904 107.513164,22.7066435 108.407031,22.1295304 C109.040859,21.7179826 109.481641,21.0337391 109.638047,20.289113 C109.748789,19.8238609 109.720352,19.3430261 109.723906,18.868313 L109.723906,7.42121739 C110.53875,7.42177391 111.354688,7.42177391 112.170352,7.42121739 C112.171172,10.9231304 112.170352,14.424487 112.171172,17.9255652 C112.160781,19.0319304 112.242813,20.165287 111.92043,21.2390957 C111.618281,22.3312696 110.976523,23.3363478 110.067617,24.0044522 C109.151055,24.6892522 108.003984,25.0050783 106.874961,25.0086957 C106.381953,24.9953391 105.887305,25.0320696 105.397852,24.9613913 C104.286328,24.8303304 103.199688,24.3522783 102.40207,23.5425391 C101.572461,22.7194435 101.078359,21.5910957 100.911289,20.4338087 C100.813672,19.8118957 100.835273,19.1813565 100.832539,18.5538783 C100.833359,14.8429913 100.832539,11.1321043 100.833359,7.42121739" id="Fill-9" fill="#000000" mask="url(#mask-2)"></path>
                        <path d="M119.205352,7.42177391 C123.158164,7.41982609 127.110156,7.4226087 131.062969,7.42121739 L131.062969,9.76556522 L126.366953,9.76556522 C126.3675,14.6913391 126.3675,19.617113 126.366953,24.5426087 C125.544727,24.5426087 124.723594,24.5434435 123.902188,24.5426087 C123.899453,19.6162783 123.901367,14.6913391 123.901367,9.76556522 C122.335938,9.76556522 120.770781,9.76723478 119.204531,9.7650087 C119.204531,8.98365217 119.204531,8.20313043 119.205352,7.42177391" id="Fill-10" fill="#000000" mask="url(#mask-2)"></path>
                    </g>
                </g>
            </g>
        </g>
    </g>
</svg>